<mxfile host="app.diagrams.net" modified="2020-05-02T17:41:57.023Z" agent="5.0 (X11; Linux x86_64) AppleWebKit/537.36 (KHTML, like Gecko) Ubuntu Chromium/81.0.4044.122 Chrome/81.0.4044.122 Safari/537.36" etag="SdqahsC-I887SOhlmt4g" version="13.0.5" type="github">
  <diagram id="omDwVuX39mqIUkGYAso9" name="太极图">
    <mxGraphModel dx="1420" dy="737" grid="1" gridSize="10" guides="1" tooltips="1" connect="1" arrows="1" fold="1" page="1" pageScale="1" pageWidth="1920" pageHeight="1200" math="0" shadow="0">
      <root>
        <mxCell id="0" />
        <mxCell id="1" parent="0" />
        <mxCell id="Zuqsj9HiBK9jqrRnvtF8-1" value="" style="group" vertex="1" connectable="0" parent="1">
          <mxGeometry x="80" y="40" width="200" height="200" as="geometry" />
        </mxCell>
        <mxCell id="Zuqsj9HiBK9jqrRnvtF8-2" value="" style="verticalLabelPosition=bottom;verticalAlign=top;html=1;shape=mxgraph.basic.half_circle;fillColor=#FFFFFF;direction=north;strokeColor=#000000;" vertex="1" parent="Zuqsj9HiBK9jqrRnvtF8-1">
          <mxGeometry x="100" width="100" height="200" as="geometry" />
        </mxCell>
        <mxCell id="Zuqsj9HiBK9jqrRnvtF8-3" value="" style="verticalLabelPosition=bottom;verticalAlign=top;html=1;shape=mxgraph.basic.half_circle;fillColor=#000000;direction=south;" vertex="1" parent="Zuqsj9HiBK9jqrRnvtF8-1">
          <mxGeometry width="100" height="200" as="geometry" />
        </mxCell>
        <mxCell id="Zuqsj9HiBK9jqrRnvtF8-4" value="" style="endArrow=none;dashed=1;html=1;" edge="1" parent="Zuqsj9HiBK9jqrRnvtF8-1">
          <mxGeometry width="50" height="50" relative="1" as="geometry">
            <mxPoint x="49.75" y="140" as="sourcePoint" />
            <mxPoint x="49.75" y="140" as="targetPoint" />
          </mxGeometry>
        </mxCell>
        <mxCell id="Zuqsj9HiBK9jqrRnvtF8-5" value="" style="verticalLabelPosition=bottom;verticalAlign=top;html=1;shape=mxgraph.basic.half_circle;fillColor=#000000;direction=north;" vertex="1" parent="Zuqsj9HiBK9jqrRnvtF8-1">
          <mxGeometry x="100" width="50" height="100" as="geometry" />
        </mxCell>
        <mxCell id="Zuqsj9HiBK9jqrRnvtF8-6" value="" style="verticalLabelPosition=bottom;verticalAlign=top;html=1;shape=mxgraph.basic.half_circle;fillColor=#FFFFFF;direction=south;strokeColor=none;" vertex="1" parent="Zuqsj9HiBK9jqrRnvtF8-1">
          <mxGeometry x="50" y="100" width="50" height="100" as="geometry" />
        </mxCell>
        <mxCell id="Zuqsj9HiBK9jqrRnvtF8-7" value="" style="ellipse;whiteSpace=wrap;html=1;aspect=fixed;" vertex="1" parent="Zuqsj9HiBK9jqrRnvtF8-1">
          <mxGeometry x="95" y="45" width="10" height="10" as="geometry" />
        </mxCell>
        <mxCell id="Zuqsj9HiBK9jqrRnvtF8-8" value="" style="ellipse;whiteSpace=wrap;html=1;aspect=fixed;strokeColor=none;fillColor=#FFFFFF;" vertex="1" parent="Zuqsj9HiBK9jqrRnvtF8-1">
          <mxGeometry x="75" y="149" width="50" height="50" as="geometry" />
        </mxCell>
        <mxCell id="Zuqsj9HiBK9jqrRnvtF8-9" value="" style="ellipse;whiteSpace=wrap;html=1;aspect=fixed;strokeColor=none;fillColor=#FFFFFF;" vertex="1" parent="Zuqsj9HiBK9jqrRnvtF8-1">
          <mxGeometry x="75" y="100" width="50" height="50" as="geometry" />
        </mxCell>
        <mxCell id="Zuqsj9HiBK9jqrRnvtF8-10" value="" style="ellipse;whiteSpace=wrap;html=1;aspect=fixed;fillColor=#000000;" vertex="1" parent="Zuqsj9HiBK9jqrRnvtF8-1">
          <mxGeometry x="95" y="145" width="10" height="10" as="geometry" />
        </mxCell>
      </root>
    </mxGraphModel>
  </diagram>
</mxfile>
